<svg id="fa7ae0d1-926a-4319-b4ac-e21cd134f2c4" data-name="Layer 1" xmlns="http://www.w3.org/2000/svg" width="717.02" height="774.21" viewBox="0 0 717.02 774.21"><path d="M246.16,383.42c1.36-7.05,3-14.05,4-21.15,4.37-29.6,8.81-59.19,12.69-88.86,2.05-15.66,2.73-31.49,4.49-47.19,1.62-14.36,3.28-28.75,6.09-42.9,1.21-6.12,4.69-12.13,8.35-17.34,6.46-9.22,15-8.93,19.82,1.12a119,119,0,0,1,8.89,27.32c6.35,30.62,4.28,61.69,3.75,92.63-.57,33.15-1.36,66.28,5.41,99a9.82,9.82,0,0,0,2.51,4.95c1.05-2.51,2.45-4.92,3.11-7.52,5.41-21.26,10.94-42.5,16-63.86,11.14-47.42,21.66-95,33.15-142.32,5.72-23.58,12.95-46.79,19.64-70.12a39.21,39.21,0,0,1,4.13-9.59c3.71-6.09,10.17-5.92,12.5.78A124.79,124.79,0,0,1,416.56,123c4.41,33.55.63,66.87-5.59,99.75-6.61,34.93-15.35,69.45-22.68,104.26-3.9,18.53-6.81,37.27-10.14,55.92A2.27,2.27,0,0,0,379,385c1.05-2,2.27-3.93,3.12-6,13.1-32.2,27-64.09,38.94-96.73,11.09-30.44,25.16-59.43,39.19-88.48a39.94,39.94,0,0,1,8.88-11.87c6.05-5.53,13.53-3.4,15.45,4.54a112.32,112.32,0,0,1,3,22.67c.88,27.81-3.28,55.19-10,82-9.56,38.2-20.4,76.08-30.85,114.05-1.31,4.75-3.59,9.23-5.81,14.84a35.24,35.24,0,0,0,3.62-2c24.94-18.56,53-29.61,83.5-34.91,11.57-2,18.3,4.14,16.69,15.68-.74,5.35-2.72,10.61-4.75,15.67a250,250,0,0,1-53.74,81.79c-14.91,15.25-32.72,27.77-49.8,40.77-15.49,11.8-31.69,22.73-49.78,30.33-9.82,4.11-19.84,7.73-29.84,11.37-2.93,1.07-3.88,2.58-4.11,5.78-.86,11.4-2.23,22.76-3.41,34.14a44.18,44.18,0,0,0-.55,5.93c.07,2.76-.71,4.75-3.78,4.62-3.39-.15-4.74-2.56-4.3-5.52.86-5.75,2.46-11.39,3.17-17.15.92-7.47,1.26-15,1.93-23.47-4.4,1-7.31,1.53-10.14,2.33-8.28,2.33-16.16,1.19-23.69-2.66-4.34-2.21-6.87-5.76-6.53-10.86.67-10,4.2-18.75,12-25.45,8.78-7.52,18.94-6.64,25.31,3,3.14,4.75,4.79,10.51,7,15.87a42.5,42.5,0,0,1,1.5,5.66,5.74,5.74,0,0,0,1.81.1c25.16-8.54,49.44-19,70.81-35.08,17-12.83,34.61-25.13,50.25-39.52,19.3-17.77,34.85-39,47.07-62.33,5-9.57,9.2-19.57,13.65-29.42a26,26,0,0,0,1.63-5.74c1.23-6.27-1.24-8.86-7.62-7.68-5.22,1-10.38,2.32-15.54,3.6a174.4,174.4,0,0,0-81.47,45.33,32.77,32.77,0,0,0-4,5.65c-6.6,10-13.14,20-19.77,30-1,1.51-2.13,3.29-3.65,4-2,1-4.5,1.07-6.78,1.55-.46-2.23-2-4.9-1.22-6.63,5.7-13.37,12.37-26.17,23.47-36.11a29.81,29.81,0,0,0,6.09-7.72c13-23.72,19.76-49.63,26.73-75.54,8.26-30.67,16.93-61.22,22.12-92.62,3.65-22.06,6.24-44.18,3.54-66.57-.33-2.72-1.13-5.39-1.71-8.08l-1.74-.63c-2.18,2.88-4.94,5.49-6.43,8.69-11.06,23.84-22.85,47.4-32.54,71.79-15.72,39.57-28.9,80.16-48,118.38-2,4-3.93,8.09-6.24,11.93-1.91,3.17-4.37,6.43-8.75,5-4.85-1.59-4.95-5.92-4.34-10,2-13.15,3.62-26.38,6.34-39.37,8.37-40,17.33-79.93,25.74-119.95,4.93-23.46,7.45-47.25,8.95-71.21a196.8,196.8,0,0,0-3.28-51.13c-.23-1.13-.56-2.26-.9-3.37-.19-.61-.5-1.19-1.4-3.3-1.39,3.63-2.56,6-3.23,8.56-9.38,35.51-19.22,70.92-27.89,106.6-12.48,51.37-24,103-36.22,154.39-1.87,7.84-5.31,15.35-8.46,22.83-1.35,3.21-3.75,6-8,5.57s-5.89-3.91-6.55-7.25c-2.34-11.89-5.76-23.83-6-35.82-1-43.28-.33-86.61-1.54-129.89-.45-16-4.3-31.87-6.8-47.77a25.84,25.84,0,0,0-3-7.91c-1.14-2.1-2.94-3.84-4.45-5.74-1.85,1.78-4.58,3.23-5.4,5.39-2.91,7.72-6.43,15.52-7.45,23.58-2.74,21.43-3.87,43.07-6.43,64.53-3,25.08-6.68,50.09-10.33,75.09-2.23,15.29-4.84,30.52-7.54,45.73a28,28,0,0,1-3.61,9.76c-1.21,1.95-4,4.08-6,4.07s-5.22-2.17-5.92-4.1a205.18,205.18,0,0,1-6.77-22.9c-6.49-27.49-11.81-55.31-19.44-82.47-4.32-15.37-12-29.83-18.8-44.44-2-4.4-5.64-8.27-9.15-11.75-5.47-5.43-10.94-4.52-13.58,2.73a116.55,116.55,0,0,0-5.55,22.67c-5.17,34.74-4.16,69.77-4.07,104.73.07,27.82.52,55.65,1,83.47.59,32.43,5.53,64,20.17,93.37,5,10.08,11.48,19.45,17.11,29.24,5.55,9.64,11.53,19.11,16.14,29.2,4,8.74,3.59,18.15-.46,27.17-.66,1.46-.39,3.35-1.12,4.76a28.37,28.37,0,0,1-3.5,4.46c-1.62-1.34-4.1-2.41-4.65-4.1a9.83,9.83,0,0,1,.85-6.71c5.33-10.68,3.36-20.88-2.26-30.49-6.13-10.48-13.2-20.41-19.46-30.82-14.92-24.81-24.75-51.43-28.39-80.3-3.82-30.19-2.92-60.54-3.2-90.83-.33-35-.44-70,.69-104.95.52-16,4-31.94,6.64-47.83.66-3.93,2.8-7.89,5.16-11.19,5.31-7.42,13.93-9,21-3.2a64.53,64.53,0,0,1,13.12,14.84c12.3,19.11,19.51,40.48,24.91,62.32,6.06,24.51,10.84,49.33,16.24,74,.72,3.29,1.76,6.51,2.65,9.76Zm81.42,195c.9-.18,2.38-.39,3.82-.76,13.63-3.56,13.37-.64,8.6-15.57-1.7-5.31-4-11.64-10.6-11.91-6.81-.28-10.67,5.54-12.86,11-5.33,13.37-3.81,14.49,9.45,17.1C326.31,578.41,326.65,578.39,327.58,578.44Z"/></svg>