<svg id="a5b35d32-ffea-4270-8807-bebc580f38d2" data-name="Layer 1" xmlns="http://www.w3.org/2000/svg" width="834" height="774.21" viewBox="0 0 834 774.21"><path d="M270.87,466.05c.5,4.92,1.05,9.84,1.5,14.77,1.6,17.53,1.51,34.88-4.5,51.77-5.59,15.71-9.63,17.94-28.26,14.75-1.19,3.9-2.14,7.94-3.66,11.75-4.57,11.4-11.7,20.2-24.65,22.34-14.32,2.36-28.83-6.41-31.41-20.58-2-10.84-2.06-22.15-1.74-33.21.14-4.93,3.36-9.77,4.91-13.92-3.55-2.05-8.06-4.28-12.18-7.08-17-11.59-19.72-30.12-22.06-48.26-3.22-25-5.47-50-20.54-71.6-5.72-8.2-11.75-16-20.47-20.82-11.78-6.47-24-12-36.21-17.77-2-.92-4.56-.37-6.75-.92-1.54-.38-4-1.41-4.1-2.27a6.29,6.29,0,0,1,2.1-4.9,7.52,7.52,0,0,1,5.64-.7c46.69,13.67,75.49,36.6,84.63,89.24,2.81,16.19,5.35,32.42,8,48.63,1.88,11.33,9.12,19,17.92,25.39,1.29.93,4.64.48,6.09-.6,3.72-2.77,6.65-6.58,10.35-9.38,5.13-3.88,10.33-7.95,16.11-10.61,7.83-3.6,14.57-1.11,19.68,5.93,6,8.26,7.81,17.92,8.68,27.76.54,6.12.58,12.3.55,18.44,0,4.67,3.62,5.24,6.62,6.18,4,1.24,8.21.73,9.64-3.71,3-9.29,6.75-18.67,7.5-28.23.94-12-.85-24.2-1.38-36.32a42,42,0,0,1,.19-9.45c1.25-6.69,6.65-9.23,12.3-5.42a71.67,71.67,0,0,1,13.18,11.39c17.72,19.74,38.06,36.24,60.18,50.78C361.15,527.56,373,536.5,385,545.15c11.1,8,23.06,13.9,36.77,15.81,11.69,1.63,21.28-2.62,27.74-12a125.93,125.93,0,0,0,20.67-49.38c.3-1.64-.27-4.33-1.44-5.19-11.36-8.44-22.92-16.59-34.45-24.8a9.5,9.5,0,0,0-2.16-.64c-.7,3-1.46,6-2,8.94-1.63,8.41-3.86,16.56-9.37,23.39-7,8.64-15.4,10-24,3.08a106.34,106.34,0,0,1-27.33-33.46c-7.18-13.61,5.42-32.27,21-31.88a12.48,12.48,0,0,1,4.72,1.41c9.33,4.36,18.61,8.82,27.93,13.2a7.92,7.92,0,0,0,2.22.21c1.47-11.85,3.18-23.51,4.29-35.22,1.4-14.8,5.91-28.67,12-42,5.61-12.25,15.25-13.7,24.38-3.84,9.46,10.23,14.2,23,16.8,36.28,1.6,8.16,4.34,12.13,13.22,12.64,12.69.72,10.79,4.76,15.49-9.34,7.05-21.15,13.7-42.42,20.27-63.72a8.46,8.46,0,0,0-1.12-6.68c-4.89-6.31-10-12.45-15.54-18.25-10.84-11.45-25-15.84-40.05-18.5-16.52-2.91-32.76-.77-49.13,1.41-24,3.22-48.15,6-72.26,8.69-9.45,1.06-18.4-1.33-27.3-4.6-12.45-4.58-25-9.26-37.85-12.35-17.48-4.21-34.86-2.56-52.1,3.2-14,4.67-28.41,8.31-42.83,11.57-21.82,4.92-43,.67-63.74-6.28a122.1,122.1,0,0,0-12.35-3.94,13.89,13.89,0,0,0-7,.64c-3.24,1.06-6.88,0-7.73-3.12-1-3.66.39-6.77,4.17-7.08a35,35,0,0,1,11.76,1.24c9.62,2.58,19.11,5.65,28.67,8.5,18.77,5.6,37.49,4.48,56.12-.64,10.59-2.9,21.26-5.59,31.62-9.16,25.27-8.71,50.11-6.48,74.82,2a167.35,167.35,0,0,1,17.69,6.82c12.13,5.79,24.86,5.89,37.67,4.3,28.37-3.52,56.6-9,85.07-10.72,30.06-1.79,58.6,4.28,78.5,30.55,2.17,2.87,4.7,5.48,7.76,9,1.21-2.89,2.16-4.91,2.92-7a150.86,150.86,0,0,1,20.8-39.1,60.32,60.32,0,0,1,6.82-7.95c9.43-8.82,22.22-6.77,27.72,5,2.69,5.75,4,12.3,5.08,18.64,2.9,17.33.23,34.52-2.3,51.64-1.65,11.17-4,22.25-5.74,33.41-.3,1.87.11,5.14,1.22,5.69,2.87,1.43,6.32,3.45,9.38-.38,5.51-6.9,11.32-13.56,16.76-20.51,8.11-10.37,17.3-19.39,29.31-25.16a52.92,52.92,0,0,1,6-2.58c13.15-4.42,24.32,4.92,21,18.4-2.87,11.74-7.36,23.08-11.17,34.58-.56,1.69-1.33,3.31-2.66,6.59,9-1.13,16.77-2.63,24.58-2.94,9.59-.38,19.34-.66,28.78.67,10.26,1.43,15.58,12.3,10.88,21.48-6.8,13.28-18.21,22-31.81,27.42-8.34,3.3-16.51-.3-23.79-4.48-7.79-4.47-15.22-9.59-22.59-14.73-3.25-2.27-5.19-2-7.93.94-6.69,7.18-13.67,14.12-20.82,20.84-12.7,12-27.39,13.33-43.12,7.14-6.85-2.7-5.7-2.14-8.08,3.93-4.43,11.31-9.1,22.52-13.84,33.71a60.71,60.71,0,0,1-5,9.22C541.82,521,533.17,524.44,520,521.91c-11.35-2.18-21.35-7.27-30.85-13.59-3.29-2.18-6.61-4.32-10.49-6.85-.74,3-1.31,5.16-1.84,7.37a131.76,131.76,0,0,1-20.27,44.8c-9,13.06-22.43,18.62-38,15.15-10.08-2.26-20.65-5.48-29.13-11.1-25.79-17.11-51-35.12-75.74-53.78-11.08-8.37-20.35-19.14-30.45-28.81-3.53-3.37-7.09-6.71-10.64-10.07ZM524.4,514.54c10.85-.22,15.7-4.86,18.53-11.14,6.49-14.38,12.46-29,18.34-43.64.53-1.31-.62-4.5-1.84-5.12-13.34-6.73-26.84-13.12-40.3-19.6-4.7-2.27-7.65-1.4-9.9,3.89-4.3,10.12-10.89,18.26-22.15,21.53-1.17.34-2.44,2.31-2.66,3.69-1.33,8.36-2.52,16.76-3.38,25.18a6.18,6.18,0,0,0,2.29,4.78c7.17,4.83,14.25,10,22,13.74C512.21,511.24,519.9,513,524.4,514.54Zm57.46-121.3a53.25,53.25,0,0,0,1.8-5.59c2.67-15.71,5.62-31.38,7.8-47.16,2-14.87,2.4-29.83-1.63-44.54-1.39-5.08-3.12-10.32-9-11.47s-8.91,3.57-12,7.45c-11.69,14.64-18.9,31.6-25,49.1a6.62,6.62,0,0,0,.45,5.06c7.18,11.39,14.14,23,22.13,33.77C570.11,384.85,576,388.25,581.86,393.24ZM473,486.43c1-7.85,1.76-14.41,2.86-20.91.55-3.31-.23-5-3.47-6.48-6.86-3.15-11.14-8.73-13-16.16-2.37-9.56,1.78-17.28,11.11-20.44,6.47-2.2,6.66-2.24,5.07-8.8-3.05-12.5-6.75-24.81-15.37-34.82-4.81-5.59-8.22-5.21-11,1.57-3.47,8.43-7.29,17-8.91,25.85-3,16.16-4.29,32.6-6.57,48.89-.43,3.05.54,4.44,2.89,6,9.79,6.61,19.43,13.45,29.12,20.21C467.74,482.77,469.75,484.19,473,486.43Zm65.86-131.28C531.17,379,523.77,402,516.69,424l48.86,23.11,8-23.29c-12.3-2.33-17.54-5.4-18.68-11.24-2-9.91,3.7-15.51,11.1-18.72ZM185.14,541c.64,5.07,1.14,10.37,2,15.6,1.46,8.58,6.68,13.85,15,16.16s15-.84,20.41-7,7.4-14,8.73-22a4.32,4.32,0,0,0-1.37-3.43c-9.16-7.16-18.14-14.6-27.77-21.08-6.45-4.34-13.38-1-15.16,6.72C185.9,530.77,185.75,535.81,185.14,541ZM636.32,426.1c-11.85-5.58-22.76-10.79-33.77-15.77-1-.45-2.85.31-4,1-4.26,2.56-8.44,5.27-12.55,8.06a7.48,7.48,0,0,0-2.91,3.14q-4.86,13.35-9.27,26.87c-.33,1,.25,3.25,1,3.65,10.21,5.08,20.88,7.85,31.4,1.53C617.8,447.66,626.64,437.63,636.32,426.1Zm-26.87-26c14.28,4.06,27.63,5,41.11,4.59,1.31,0,3.06-1.9,3.75-3.33a163.78,163.78,0,0,0,7.1-16.47,142.06,142.06,0,0,0,5.8-20.09c.54-2.81-.4-7.06-2.33-8.83-1.68-1.55-5.86-1.13-8.67-.48-3,.69-5.76,2.54-8.49,4.12C631.29,369.09,622.64,385.85,609.45,400.07Zm39.12,25.29c11.6,6.67,22.48,13.24,33.7,19.15,2.64,1.39,7,1.75,9.62.58,10.66-4.68,19.81-11.63,25.93-21.76,3.06-5.06.94-9.89-4.83-11a73.79,73.79,0,0,0-17.32-1.5c-12.25.68-24.47,2.12-36.69,3.32a4.87,4.87,0,0,0-3,1.31C653.66,418.27,651.6,421.25,648.57,425.36ZM376.7,457.11c-3.36,4.5-1.21,8.56,1.14,11.69,7,9.28,14,18.57,22,27,6.3,6.75,11.13,5.7,16-2.05,5.29-8.4,6.4-18.07,7.79-27.59a4.41,4.41,0,0,0-1.92-3.55q-9-4.75-18.38-8.91a4.12,4.12,0,0,0-3.71.91C391.72,463.58,386.42,464.3,376.7,457.11Zm-186,50.69c.2.46.41.92.61,1.39,18.11-2.34,27.14,13.42,41.27,21.16-.68-12.81-.69-24.77-6.89-35.54-3.49-6.07-7.46-7.76-13.18-4C204.83,495.81,197.94,502.07,190.71,507.8Zm295.56-56.2c9.74-3.57,13.21-11.55,17.36-20.44l-17.36-2.64ZM571,414.72c5.33,0,8.39-3.73,8.63-10.57.14-4-2.9-2.95-4.94-3C568,401,563,404.43,563,408.83,563.07,412.16,566.48,414.69,571,414.72Zm-93.69,15.37c-6.63.2-9.94,2.8-10.17,7.82-.26,5.89,4.56,12.21,10.17,12.78Zm168.37-16.58-15-1.13a18.81,18.81,0,0,0,6.19,5.08C642.17,420.56,643,420.22,645.65,413.51Z"/></svg>