<svg id="ac48200e-535f-4092-adf5-81d9b9f35450" data-name="Layer 1" xmlns="http://www.w3.org/2000/svg" width="834" height="774.21" viewBox="0 0 834 774.21"><path d="M417.25,218.3a34.74,34.74,0,0,0,1.54-4.29c3.17-15.88,20.08-23.3,34.7-17,11.57,5,19.55,14,25.86,24.24a246.91,246.91,0,0,1,24.94,55.38c8.41,26.49,22.54,49.62,43.19,68.48,11.19,10.21,23.89,16.77,39.6,16.17A48.52,48.52,0,0,1,599,362.51c8.33,1.78,13.51,7.5,13,15.9-.57,9.72-2.38,19.38-3.79,29-1.24,8.52-3.62,17-3.83,25.52-.55,22.32-.17,44.66-.21,67a48,48,0,0,1-8.08,26.86c-4.95,7.52-11.58,12.74-21.14,14.4,2.27,9.25,4.53,17.89,6.5,26.6,3,13.28,5.85,26.61,8.64,39.95.43,2.07.8,4.49.14,6.38-.52,1.47-2.72,3.31-4.1,3.25a5.47,5.47,0,0,1-3.94-3.5c-1.48-8.42-1.9-17.07-3.78-25.39-3.22-14.26-7.3-28.34-10.9-42.52-.85-3.36-2.83-4.35-6.05-5.44-9.87-3.34-19.46-7.49-29.13-11.41a63.27,63.27,0,0,1-6-3.36,63.18,63.18,0,0,0,1.7,6.46c8.56,21.61,2.15,41-9.72,59C508,606.88,496.52,621.83,485.38,637c-7.79,10.58-18.31,17.81-30.14,23.27-2.26,1-4.45,2.27-6.77,3.19-2.94,1.17-3.4,2.76-2.24,5.78,7,18.17,13.74,36.42,20.52,54.67a17.41,17.41,0,0,1,1.52,6.23c0,1.51-1.34,4.15-2.24,4.22-1.59.12-3.51-1.08-4.88-2.23-.9-.75-1.11-2.35-1.58-3.6-6.68-17.92-13.43-35.83-20-53.8-1.61-4.41-3.27-6-8.55-4.22-15.51,5.34-31.69,5.77-47.86,4-13.54-1.45-27.31-2.3-40.46-5.54-26.86-6.64-51.56-18.75-74.69-33.87-15.58-10.18-31.77-19.53-44.5-33.66C211,587.59,197.88,574.34,185,560.83a21.23,21.23,0,0,1-2.37-2.57c-14.94-22-30.47-43.65-44.49-66.23-6.47-10.42-8.5-23.08-8.51-35.56A229.7,229.7,0,0,1,131,427.6c1.31-10.4,12.48-19.5,23-20.4,13.06-1.12,24.94,3.17,36.82,7.6,3.27,1.22,6.45,2.69,9.69,4,6.94,2.78,9.55,1,8.49-6.31a151.85,151.85,0,0,0-3.42-16c-2.19-8.53-4.72-17-6.94-25.48-7.1-27.26,16.06-39.32,34.59-34.32a77.66,77.66,0,0,1,38.19,23.47c5.22,5.82,7.77,12.53,8.1,20.82.42,10.82.74,13.32,9,15.57-1.44-6.75-2.85-13.15-4.17-19.56-3-14.65-6.31-29.25-9-44-2.48-13.71-1.79-27.56.48-41.24a28.52,28.52,0,0,1,23-22.91c3.92-.63,8.13.51,13,.9a60.06,60.06,0,0,0-2.55-5.77c-18.93-33-34.32-67.67-47.77-103.19-5.58-14.72-11.15-29.64-10.9-45.83a55.6,55.6,0,0,1,.33-8.48c2.54-14.8,13.07-22.26,27.56-18.07a131.7,131.7,0,0,1,27.78,12c27.26,15.41,48.75,37.6,68.39,61.49,13.63,16.58,26,34.21,38.9,51.38C414.65,214.72,415.7,216.18,417.25,218.3Zm88.31,245,1.94-.49c0-3.67.26-7.37-.09-11-.23-2.49-2-4.92-1.9-7.34a74.76,74.76,0,0,1,7.42-30.32c.67-1.4,1.41-3.47.86-4.64-3.13-6.59-5.87-13.57-10.18-19.35-9.34-12.52-19.69-24.27-29.36-36.54C448.79,321.33,433.54,284,421,245.32c-1.43-4.4-2.73-9-5.14-12.88A546.16,546.16,0,0,0,361,158.75c-18.82-21.19-39.11-40.57-64.24-54.16a106.64,106.64,0,0,0-19.29-8c-10.25-3.15-16.86,1.51-18.33,12.19a49.64,49.64,0,0,0-.26,6.46c0,14.64,5.06,28.14,10.05,41.47a779.12,779.12,0,0,0,49,105.93c5,9,9.65,17.82,18.45,23.7a31.93,31.93,0,0,1,4.73,4.44c33.59,34,57.34,74.57,78.64,116.81,1.73,3.42,3.31,7.78-.65,10.44-4.35,2.92-7.72-.56-10-3.86-5.86-8.49-11.23-17.31-17-25.87a82.77,82.77,0,0,0-8.4-10.77c-15.15-16-29.44-32.68-40.82-51.58-7.55-12.53-14.06-25.7-21.11-38.54-2.91-5.3-15.91-11.84-21.5-10.37-8.29,2.18-14.83,7.22-16,16C283,303.2,281.9,313.69,283,323.81c1.5,14.15,5,28.09,7.79,42.1,1.93,9.78,4,19.52,6.06,29.28.91,4.37-.49,8.22-4,10.57a8,8,0,0,1-6.91.19c-7.1-3.78-14-8-14.3-17.59-.05-1.5-2.23-3.86-3.8-4.22-12-2.73-22.89-8.1-33.25-14.54-8.76-5.45-17.91-9.24-29.82-8,2.62,9.9,5.49,19.71,7.78,29.65,2,8.53,4.09,17.15,4.6,25.82.49,8.5-7.25,13.49-15.52,11-4.28-1.31-8.28-3.53-12.56-4.82-9.2-2.77-18.38-5.87-27.8-7.6-12.49-2.3-22.19,6-23.08,18.69-.25,3.65-.31,7.32-.47,11-1,22.43,4.74,42.76,18.29,60.87,5.88,7.86,10.95,16.32,16.81,24.19,7.34,9.84,14.73,19.71,22.82,28.93C205,569.93,215,579.92,224.86,590.1c5.78,6,11.12,12.63,17.72,17.53,27.64,20.53,56.91,38.24,89.6,49.78,15.25,5.39,31.08,6.81,47,8.33,14.84,1.4,29.51,2,44.14-1.56,10.31-2.48,10.31-2.33,6.53-12-1.5-3.87-2.67-7.88-4.25-11.72-3.11-7.53-5.95-15.23-9.82-22.36-1.82-3.35-5.85-5.47-8.72-8.31a46.92,46.92,0,0,1-3.84-5c1.81-1.15,3.52-3,5.45-3.27,2.53-.35,5.22.69,7.86.89,30,2.32,56.86-18.89,68.72-43.7,7.68-16.05,10.83-33.49,12.49-51.12.17-1.86-1.18-4.4-2.62-5.78-10.21-9.71-17-21.27-19.82-35.1-1.73-8.63,4.3-15.91,12.85-14.39,4.91.88,9.44,4.29,13.95,6.88C503.57,460,504.43,461.9,505.56,463.3Zm98.85-79.73c-.51-10.73-3-13.34-13.59-13.87-.5,0-1-.07-1.49-.05-18.31.79-33.79-5.76-47.2-17.93a159.9,159.9,0,0,1-44.21-67.89c-5.76-16.92-11.9-33.6-20.56-49.15-4.64-8.32-10.8-16-17.22-23.06-3.26-3.6-8.39-5.93-13.1-7.68-6.09-2.28-13.67.48-17,5.07-4.48,6.09-5.14,15.6-1.63,21,.65,1,.63,2.48.93,3.74.55,2.3.55,5,1.74,6.86,26.26,42.13,49.51,85.94,72.55,129.87,4.58,8.76,9,17.36,18,22.59,3.46,2,5.46,5.68,4.07,9.88-1.86,5.64-.59,10.45,2,15.64,17,34.51,32.51,69.62,42.66,106.87,2.24,8.21,5,9.15,11.95,3.8a31.87,31.87,0,0,0,6.75-7.25A38.47,38.47,0,0,0,595.8,500c0-20.32.1-40.65,0-61a118.32,118.32,0,0,1,5.1-36.89C602.75,396.15,603.27,389.76,604.41,383.57ZM506.19,511.3c-.4,1.72-.71,3.09-1,4.46-3,12.75-4.92,25.86-9.17,38.17-8.91,25.79-26.53,43.77-52.52,52.85-6.61,2.31-13.65,3.42-20.25,5,5.93,15,11.92,30.19,18.3,46.33,8.83-5,17.32-8.75,24.54-14.17,13.91-10.44,23.27-25,32.51-39.44a100,100,0,0,1,7.94-11.44c8.44-9.85,13.49-21.3,16.21-33.77a31.7,31.7,0,0,0,0-12.76c-1.64-8.12-4.45-16-6.2-24.11C515.32,516.66,511.62,513.81,506.19,511.3Zm56.42,21.16c-.3-15.08-36.21-104.6-44.28-110.14.42,1.2.47,2.06.93,2.51,2.84,2.74,1.63,4.82-.19,7.78s-2.42,6.74-2.78,10.24c-.61,5.88-.52,11.82-.86,17.73-.38,6.39-2,12.94-1.12,19.11,1.38,9.14,4.5,18,7,27,.61,2.2,1.05,5,2.6,6.29A90.93,90.93,0,0,0,562.61,532.46Zm-63.06-37.9,1.75-.74c.82-3.68,1.86-7.33,2.42-11,1.18-7.8-6.52-19.68-14.05-22-4.4-1.34-7.34.95-5.94,5.26A104.27,104.27,0,0,0,491,483.4C493.19,487.47,496.65,490.87,499.55,494.56ZM341.47,304.09c10.48,25.48,28.59,45.34,47,65A320.27,320.27,0,0,0,341.47,304.09Zm-74.24,70.74c-8.08-15.7-39.86-27.87-52-22.07C234.53,355.94,247.85,371.41,267.23,374.83Zm191.3-63.45L457,313.19,480,347.75l1.56-1c-5.93-10.91-11.75-21.89-17.92-32.67C462.86,312.68,460.29,312.26,458.53,311.38Z"/></svg>