<svg id="f3c7bb67-ab55-4aa7-b01c-53674a1dff68" data-name="Layer 1" xmlns="http://www.w3.org/2000/svg" width="834" height="774.21" viewBox="0 0 834 774.21"><path d="M648.83,206.44c9.69,8.58,19.59,16.94,29,25.81a203.79,203.79,0,0,1,17.74,19c8,9.74,13.14,20.84,12.83,33.82-.38,15.61-14.71,29.75-30,30a20.68,20.68,0,0,1-18.33-12.2c-5.3-16-17.25-26-29.75-36.44a276.57,276.57,0,0,0-69-42.64c-12.23-5.24-24.83-9.62-37.37-14.08a11.67,11.67,0,0,0-7.63,0c-15.31,6.23-31.61,7.49-47.61,10.51-14.8,2.78-29.26,7.38-43.86,11.2a5.92,5.92,0,0,0-1.31.7c.07.43.13.87.2,1.31,9.33,1.73,18.6,4.13,28,5.08,21,2.11,42.11,3.38,63.15,5.24,25,2.21,50.22,2.76,74.54,9.89,16.89,4.94,31.5,13.58,42.17,27.87,5.16,6.92,8.82,14.47,6.88,23.67-2.32,11-12.76,20.17-23.81,19.75-3.34-.12-6.78-2.06-9.82-3.79-1.73-1-2.73-3.25-3.78-4.57-1.35.51-1.81.53-1.94.75-8.77,15.1-21.88,25.37-37.23,33-11.16,5.53-22.6,10.51-33.8,16-1.27.62-2.81,3-2.54,4.16,5.74,24.85-7.76,56.31-35.6,71.65-15.72,8.66-31.4,17.56-49.85,19.54-12.4,1.33-24.58.3-36.74-1.92-12.41-2.26-12.1-2.24-13,10.15a93.49,93.49,0,0,1-3.59,19.56c-5.85,19.71-13.91,38.5-25.12,55.81-1.89,2.92-1.75,5.12-.13,8.13,14,26,27.24,52.24,37.34,80,.67,1.84,3.21,2.92,4.54,4.62a41.86,41.86,0,0,1,3.09,5.43c-1.81.79-3.66,2.32-5.44,2.24-5.2-.21-8.2-3.23-9.93-8.28-9.29-27.18-22.43-52.62-35.79-77.94A16.64,16.64,0,0,0,354,557.5c-2.45,1.76-5.65,2.77-3.31,6.78,1.91,3.27,2.52,6.56-.25,9.7-3.05,3.46-7,3.63-11,2.54-5.9-1.6-8-1-9.19,4.93A64.28,64.28,0,0,0,329,600.19c.72,6.87,3.52,13.5,4.79,20.35a130.44,130.44,0,0,1,2.4,20.62c.15,6.8-3.77,9.2-10.28,6.9-9.44-3.34-17.87-8.23-23.36-17-6.09-9.75-12.11-19.51-12.84-31.51-.52-8.36,2.79-14.16,10.44-17.49,7.32-3.18,14.69-6.28,22-9.56a34.09,34.09,0,0,0,5-3.4c-5.9-9.84-12.08-19.55-1.52-29.48,7.82-7.36,16-6.79,28.19,1.3a16.44,16.44,0,0,0,2.16-2.4c11.88-19.84,21.17-40.73,25.54-63.57.83-4.37.82-8.92,1-13.4.11-3.07-1.26-4.28-4.66-4-11.56,1.06-20.59,6.31-28.6,14.62-14.31,14.87-28.43,30.09-44.08,43.48-20.71,17.71-45.32,26.61-72.94,24.09-6.87-.62-13.66-3.66-20.11-6.47a8.23,8.23,0,0,1-4.89-10c1.23-4.53,5.43-5.43,9.18-5.54,9.11-.28,18.37-.94,27.33.3,34.65,4.76,76.13-18.84,88.36-46.62,2.62-5.94,5.29-11.86,8.11-17.71,4.35-9,9.93-16.94,19.36-21.43,12.36-5.88,23.49-1.62,28,11.36,1.46,4.17,3.31,6.21,7.81,6.53,13.22.95,26.41,2.62,39.64,3.23,5.19.23,10.66-1,15.67-2.61,16.58-5.32,32.39-12.58,45.8-23.8,15.28-12.78,23.1-29.4,21.63-49.69-.59-8.06-.84-8-8.84-7.45-20.5,1.32-40.08-2.72-59-10.29-10.81-4.33-21.48-9-32.39-13.1-2.62-1-6.54-1.13-8.85.16-14.37,8-29.1,15.61-42.47,25.11-19.07,13.57-39.41,23.33-62.48,27.37-24.53,4.3-49.14,6.49-74,2.83a67.76,67.76,0,0,1-27.24-10.6c-12.47-8.11-10.38-18.38-.54-27,3.12-2.73,7.76-3.65,11.5-5.77,5.71-3.24,11.29-6.72,16.83-10.25,2.09-1.33,3.76-3.32,5.85-4.64,12.25-7.73,24.86-14.92,36.77-23.13,13.9-9.58,28.94-10.35,45.2-10,31.91.72,60.87,11.6,89.86,22.92a13.79,13.79,0,0,0,10.48.15c14.57-5.21,29.21-10,45-10.14,24.38-.27,42.8,9.63,54.76,30.92,2.27,4,4.6,4.89,8.75,3.19,17.31-7.09,34.31-14.9,48.89-26.71,6-4.9,10.48-11.87,15.33-18.15,2-2.57,1.44-5.47-.65-8.24-3.82-5.05-7.34-10.31-10.94-15.52-1.91-2.76-3.48-6.3-.38-8.45a10.09,10.09,0,0,1,8.58-.69c8.29,4,12.64,11.31,13.23,20.34.51,7.68,5.93,11.63,10.91,15.82,1.31,1.1,4.57.55,6.67-.11a16.4,16.4,0,0,0,9.76-23C622,279.13,610.1,271,596.59,265c-14.66-6.47-30.4-8.59-46.14-10-30.83-2.67-61.77-4.19-92.54-7.41-16.3-1.71-32.32-6-48.5-9a49.39,49.39,0,0,0-10.3-.74c-16,.52-32,.33-47.37-5.13-22.58-8-46.07-11.62-69.66-14.73-9.89-1.3-19.84-2.52-29.79-2.86-20.67-.72-40.39,4.71-59.26,12.2a530.8,530.8,0,0,1-76.09,23.75,95.48,95.48,0,0,0-18.29,6.55c-14.06,6.48-19.33,16.7-15.45,31.56C88,307.58,93.7,325.66,99,343.87c6.09,21.12,7,42.52,4,64.25-1.62,11.37-.63,22.42,5,33,8.83,16.41,18.35,32.65,25.12,49.92,8.22,21,14.26,42.89,20.57,64.6q11.67,40.21,22.1,80.81c2.79,10.9,3.83,22.26,5.66,33.41.1.65.3,1.5,0,2-1.14,1.76-2.47,3.39-3.73,5.06-1.2-1.53-3.11-2.9-3.48-4.61-4.19-19.31-7.19-38.93-12.36-58-9.55-35.14-20.29-69.95-30.62-104.87-6-20.13-16.08-38.44-26.61-56.32-10.17-17.28-11.88-35-9.1-54.27,2.81-19.51-.18-38.76-6-57.63-5.25-17-10.36-34.05-14.62-51.3s2-30.55,17.94-38.54a110.31,110.31,0,0,1,24.31-8.81c25.35-5.86,49.86-14,74.1-23.42C211,211.46,231.54,205.7,253,207a407.16,407.16,0,0,1,52.45,6.31c20.36,3.89,40.36,9.65,60.53,14.59a23.29,23.29,0,0,0,3.42.59c.41,0,.85-.29,1.49-.54-3.53-2.49-7.13-4.55-10.15-7.26C350,211,351,197.16,362.67,188.77c10.46-7.49,22.55-9,34.72-9,39.38-.23,77.83,6.28,115.53,17.38,4.66,1.37,9,1.76,13.63.31,12.38-3.86,24.73-7.89,37.31-11,7.19-1.77,14.8-1.85,22.22-2.76,21.11-2.59,40.56,5.22,60.33,10.19s39.05,11,58.1,17.81c18.23,6.55,32.68,19.17,45.62,33.29,19,20.69,9.11,44.46-7.92,55.9-10.76,7.23-21.92,2.73-23.88-10.08a35.71,35.71,0,0,1,1.27-16.08c2.55-7.63,1.57-14-3.17-20.14-12-15.47-26.26-28.34-43.6-37.53-7.73-4.1-15.83-7.48-23.77-11.19ZM401.36,340.2a13.79,13.79,0,0,0-2.54-1.71c-18.86-5.88-37.5-12.65-56.67-17.21-11.32-2.69-23.49-1.68-35.25-2.7-6.67-.58-13,.07-18.74,3.56q-23.7,14.3-47.3,28.76A18.25,18.25,0,0,0,237,354c-5.83,6.25-13,10.25-21,12.87a28.23,28.23,0,0,0-9.22,4.7c-5.59,4.66-5.21,8.79.84,12.77A64.93,64.93,0,0,0,237,394.59c19.32,2,38.56.53,57.67-2.14a142.67,142.67,0,0,0,65-26.11c11.68-8.47,24.38-15.52,36.63-23.2C397.78,342.21,399.32,341.38,401.36,340.2ZM535,204.26c2.78,1.18,4.26,1.79,5.72,2.42,14.53,6.17,29.35,11.75,43.52,18.64,20.16,9.8,37.78,23.42,55.19,37.53,11.69,9.48,21.86,19.35,27,33.73a28.16,28.16,0,0,0,2.87,5.24c2.63,4.19,6.57,5.41,11.24,4.66,11.08-1.78,19.81-12,19.57-23.24-.25-11.59-5.93-21-13.1-29.52a205.67,205.67,0,0,0-82.65-59.48,26.17,26.17,0,0,0-5.28-1.32C576.88,189.15,556.69,196.55,535,204.26Zm-30.31.85c0-.51,0-1,0-1.52a16.84,16.84,0,0,0-1.78-.7c-35.66-9.53-71.82-15.68-108.86-14.72-9.62.25-19.24,1.78-27.31,8.09-6.05,4.73-6.91,11.86-1.34,17.14a29.23,29.23,0,0,0,9.56,6.07,198.57,198.57,0,0,0,22.83,7.15c3.84.93,8.38,1.3,12.06.16,25.26-7.85,50.52-15.48,77.05-17.93C492.86,208.29,498.73,206.39,504.66,205.11ZM427.45,340.34c26.76,12.24,53.45,24.56,85.23,20.48C505.3,349,497.85,339,484.88,335,465.15,328.83,446.21,332.47,427.45,340.34Zm260-126-.42.81c1.39,1.1,2.76,2.21,4.15,3.29,12.17,9.39,23.7,19.41,32.71,32,5.84,8.18,7.5,16.85,3.67,26.38a20,20,0,0,0-1.68,6.23c-.25,4.54-.09,9.56,4.28,12,4.15,2.34,7.57-1.05,10.59-3.62,13.79-11.73,15.21-27.25,3.19-40.75-14.52-16.3-31.92-28.6-52.82-35.56A36.82,36.82,0,0,0,687.42,214.32ZM321.09,583.8l-1.32-.84c-5.91,2.54-11.91,4.9-17.71,7.7-3.78,1.82-4.68,5.38-4,9.35a60,60,0,0,0,16.38,31.9c3.29,3.4,8.11,5.32,12.24,7.92.47-.36.95-.71,1.43-1.06C328.62,620.09,316.06,603.05,321.09,583.8Zm25.26-121.56c9.54-8.87,21.27-12.19,33.71-13.52-2.5-9.82-8.4-12.78-16.55-9C354,444.23,349.64,452.74,346.35,462.24ZM333.84,562.46c4.42-3.65,8.79-7,12.78-10.75.87-.82,1.11-3.53.43-4.59-2.72-4.26-7.69-5.43-12.32-3.41C327.06,547,326.32,553.37,333.84,562.46ZM218.38,525.23l.06,1.83c7.82,7.4,38.84,6.14,47.27-.19Z"/></svg>