<svg id="a03d6c2e-33cb-4ac4-8631-f885070b7d7f" data-name="Layer 1" xmlns="http://www.w3.org/2000/svg" width="834" height="774.21" viewBox="0 0 834 774.21"><path d="M239.2,241.92c-1.51-3.47-3.1-6.9-4.53-10.4-6-14.64-2.07-29.81,10-38.94,7.08-5.36,14.78-5.86,21.29-1.27,2.5,1.76,5,3.78,3.42,7.38s-4.77,3.05-7.77,2.53c-2.35-.4-5.4-2.17-6.82-1.26-2.48,1.59-4.39,4.54-5.74,7.31-11.76,24,5.28,51.8,31,50.48,6.7-.35,13-2.29,18-7.51s11.58-5.37,17-.66c3.43,3,6.32,6.6,10.48,9.47-3.83-9.49-7.59-19-11.56-28.43-.41-1-2-1.76-3.18-2.08-20.07-5.41-31.54-24.2-32.79-42.75a96.27,96.27,0,0,1,2.15-27.18c2.22-9.93,8.65-17.68,19.47-19,4.76-.57,9.94,1.44,14.78,2.81,2.43.68,4.53,2.55,7.14,4.1.53-5.51.61-10.64,1.58-15.58,4.62-23.51,20.24-32.94,44.65-27.82,26.57,5.57,45.78,20.78,60.31,43.27,14.22,22,21.6,46.45,25.82,71.82,3.11,18.65,3.95,37.66,6.31,56.45,2.46,19.62,5.38,39.18,8.39,58.73,1.49,9.68,3.25,19.36,5.64,28.85.94,3.73,3.92,6.95,6,10.41,2.94-2.67,7-4.79,8.64-8.11,9.84-19.76,20.42-39.29,25.2-61.11,2.41-11-.44-20.83-8.45-28.91-8.57-8.63-17.52-16.9-25.79-25.8s-14.69-19.26-16.6-31.84c-2.41-15.88,10.22-28,25.79-24.47a58.26,58.26,0,0,1,32.68,19.82c19.72,23.31,31.59,50.07,37.64,79.94A482,482,0,0,1,568,359.87c.9,15.28,1.35,30.64.89,45.93-.67,22.49-4.36,44.19-17.89,63.39-6.57,9.32-10.75,20.28-16.7,30.08-9.67,15.92-20,31.46-29.83,47.27-.8,1.27-1.14,4.11-.36,4.88,11.58,11.45,15.39,26.2,17.89,41.46,4.4,26.88,2.16,53.4-4.93,79.58a29.57,29.57,0,0,1-4.33,9.94c-1.19,1.58-5,2.85-6.61,2.08-3-1.46-1.2-4,.34-6.22a18.68,18.68,0,0,0,2.79-5.79c7.77-29.44,9.28-59.07,2.34-88.89-2-8.66-5.28-16.81-11.14-23.73-2.14-2.53-4-3.64-6.81-.61a12.41,12.41,0,0,1-12.33,3.84c-2.77-.68-6.45-2.53-7.3-4.78s.67-6.12,2.38-8.34c3.36-4.4,8.55-5.67,13.93-5a6.76,6.76,0,0,0,7.13-3.16c11.76-16.57,23-33.46,32.3-51.59,5-9.76,10-19.63,16.06-28.73,8.43-12.62,12.53-26.52,13.68-41.23a422,422,0,0,0-15-151.17c-6.18-21.4-18.76-39.24-33.4-55.65-6.3-7.08-14.82-10.68-23.86-12.83-9.93-2.36-18.3,5.64-15.53,15.74,2,7.37,5.15,15,9.85,20.93,8,10,17.32,18.87,26.52,27.78,7.81,7.55,13.56,16,14.74,27,1,9.49-.78,18.68-4.25,27.38-5.55,13.9-11.42,27.69-17.78,41.24A67.75,67.75,0,0,1,490,376.73C483.5,384,474,383,470,374.13a98.43,98.43,0,0,1-7-24.28c-4.08-23.92-7.86-47.9-11.05-72-1.81-13.66-1.41-27.63-3.43-41.26-4.45-30-10.77-59.51-27.66-85.73-13.81-21.45-32.13-35.51-57.58-40-17.94-3.2-29.29,4.35-32.17,22.23-1.95,12.12-.51,23.43,7.42,33.48,3.29,4.16,5.74,9,8.64,13.44,4.67,7.23,12.06,10.42,20.49,14.3,0-5.07-.26-9,.05-12.93.66-8.1,3.8-14.78,10.38-20.18,13.33-10.94,28.75,2.35,30,13.44,1.66,14.13-7.48,26.57-21.81,29.52-1.73.36-3.45.83-5.9,1.42,1.6,3.22,2.86,5.87,4.22,8.47,17.53,33.46,31.53,68.22,39,105.39,3.2,15.88-4,30.59-18.84,36-6.36,2.33-13.71,2.78-20.58,2.69-7.8-.11-13.62,1.8-17.25,9.08-1.39,2.78-4.39,5.71-7.11,3.42A20,20,0,0,1,354,360.39c-.73-3.17,2.71-4.3,5.8-4.7a22,22,0,0,0,5.65-1.84c5.65-2.42,11.19-5.1,16.9-7.38,7.89-3.15,8.13-3.09,5.57-11.57-3.51-11.62-7-23.25-11.11-34.68a886.21,886.21,0,0,1-27.19-92.83c-2.16-9.1-5.74-17.54-12.49-24.61-3.82-4-6.67-9.2-9-14.31-3.51-7.84-9.27-13.39-16.22-17.81-9.24-5.87-18.36-3.43-22.38,6.81a60.68,60.68,0,0,0-3.62,19.91c-.49,15.8,4.34,29.58,18,39a68.25,68.25,0,0,0,7.55,3.94c3.07-6.78,6.45-12.61,14.2-12.19a8.76,8.76,0,0,1,8.19,7.67c1.35,8-5.44,10.07-11,13.2,4.4,11.63,8.59,23.15,13.1,34.55a145.47,145.47,0,0,1,10.22,59.05c0,.66.13,1.48-.19,2-1.29,1.92-2.74,3.74-4.12,5.59-1.77-1.47-4.48-2.61-5.12-4.47a73.82,73.82,0,0,1-3.08-14.08c-2.22-16.56-7.23-32.1-16.29-46.23-.8-1.26-1.63-2.51-2.52-3.71-5.93-8-6.69-7.86-14.56-2.17-8.17,5.91-17.6,7.55-27.54,6.4a11.4,11.4,0,0,0-5.39.13c1.68,1,3.33,2,5,2.91,9.8,5.26,15.24,13.61,15.53,24.54.43,16.27-.43,32.58.21,48.84.4,10.22,2.19,20.44,4.07,30.52.75,4,3.44,7.65,5.91,12.88,2.8-3.22,4.3-5.78,6.51-7.31a98.29,98.29,0,0,1,14.05-8.2c2.69-1.26,6.3-.44,6.84,2.88.31,1.87-1.69,4.52-3.3,6.2-1.41,1.48-3.75,2.06-5.65,3.09-3.88,2.11-5.67,5.21-5.42,9.8.44,8.14-2.68,10.24-9.72,6.51-2.58-1.37-4.35-1.11-6.14.82a54.23,54.23,0,0,0-3.5,4.21c-3.86,5.13-9,5.62-12.06,0-3.8-6.9-7.37-14.37-8.84-22-2.36-12.36-3.24-25.05-4.19-37.64-2.42-32.22-12.84-61.75-29.84-89-2.72-4.35-7-8.08-11.25-11-5.56-3.83-10.62-2.56-15,2.63-5.21,6.17-7.53,13.63-9,21.38-1.84,9.72-3,19.46.38,29.09.78,2.25,2,4.35,3.53,7.68,1.69-5.76,2.76-10.2,4.29-14.48,1.71-4.75,4.82-8.3,9.95-9.72a10.24,10.24,0,0,1,13.33,9.46c.69,10.48-5.9,21.77-15.66,25.65-3.58,1.43-4.22,3.41-3.33,6.44a110.3,110.3,0,0,0,4,11.77c7.5,17.77,15.42,35.36,22.56,53.27a60,60,0,0,1,4.19,19.34c.51,11.79-.42,23.63-.36,35.45.07,12.33.3,24.77,5.71,36.2,6.67,14.09,16.44,24.19,33.14,26.27,14.44,1.8,19.56,7.77,21.63,22.88,1.2,8.73,2.05,17.5,3,26.26,2.37,21.52,23.26,33.88,43.44,25.61,4.92-2,9.6-4.66,14.6-6.42,7.74-2.73,13.84.75,16.06,8.7a27.1,27.1,0,0,1-2,20.41c-10.75,20.23-7,39.47,3.07,58.55.79,1.52,0,3.86,0,5.82a38.29,38.29,0,0,1-6.28-.87c-.9-.28-1.64-1.64-2.13-2.67-9.75-20.34-13.72-40.9-3.19-62.38a33.24,33.24,0,0,0,3-12.92c.28-6.68-2.61-8.19-8.76-5.72-6.75,2.72-13.4,6.2-20.44,7.62-22.45,4.53-43.51-12-45.7-35-1-10.08-2.38-20.12-3.91-30.13-1.09-7.12-5.46-10.62-12.75-11.81-23.9-3.88-39.41-19.24-44.33-42.95-3.5-16.86-2-33.86-1.56-50.81a75.43,75.43,0,0,0-7-34.76c-8.28-17.76-15.74-36-22.41-54.41-2.87-7.95-4.41-15.86-10.26-22.82s-6.69-16.69-5.62-25.76,3.21-17.93,5-26.86a19.38,19.38,0,0,1,2-4.58c8.87-17.86,22.6-20.76,37.87-8,.49.4,1,.73,1.56,1.1Zm158,106.4c9.34.38,20.88-12.7,18.76-22.22-3.52-15.87-6.92-31.91-12.28-47.21A540.13,540.13,0,0,0,374,210.77c-4.26-8.31-11-8.35-17.87-12.12.5,2.32.72,3.44,1,4.56,7.76,32.88,17.55,65.13,28.32,97.16C390.71,315.92,398.77,331,397.22,348.32ZM254.11,268c1.22,2.79,2,4.6,2.8,6.37,8.1,17.63,14.3,35.83,16.38,55.23,1.65,15.37,3.09,30.76,4.82,46.13a55.22,55.22,0,0,0,7.05,21c7.09-5.21,6.95-5.13,3.28-11.81-1.9-3.47-3.95-7.15-4.62-11-1.77-10.11-3.65-20.33-4-30.55-.45-13.78.94-27.62.69-41.42-.17-9.83-1.18-19.86-11.54-25.41C264.32,274.11,259.8,271.32,254.11,268Zm120.44-83.19,1.05.52c.22,2.65.08,5.4.81,7.9.41,1.36,2.19,3.13,3.51,3.28,9.64,1.11,20.35-8.83,20.24-18.48-.05-5-3.74-10-8.47-11.91-4.94-2.06-8.54.89-10.69,4.1C378.09,174.6,376.63,179.92,374.55,184.83ZM214,306.35l1.69.84c4.94-2.82,7.58-7.45,8.75-12.9.35-1.61-.8-3.54-1.26-5.33-1.68,1.1-4.25,1.83-4.87,3.36C216.5,296.83,215.42,301.65,214,306.35Z"/></svg>